# xmcd CD database file
#
# Track frame offsets:
#	150
#	10575
#	22700
#	32825
#	39575
#	45250
#	53725
#	63525
#	69450
#	80050
#	90825
#
# Disc length: 1340 seconds
#
# Revision: 1
# Processed by: cddbd v1.4b42PL0 Copyright (c) Steve Scherf et al.
# Submitted via: CDex 1.40Beta6
#
DISCID=77053a0b
DTITLE=Johnny Cash - The Rough Cut King Of Country Music
DYEAR=1991
DGENRE=Country
TTITLE0=Cold, Cold Heart
TTITLE1=Goodnight Irene
TTITLE2=Straight A's In Love
TTITLE3=You're My Baby
TTITLE4=My Treasure
TTITLE5=I Forgot To Remember To Forget
TTITLE6=Born To Lose
TTITLE7=You Tell Me
TTITLE8=Fools Hall Of Fame
TTITLE9=I Just Thought You'd Like To Know
TTITLE10=Story Of A Broken Heart
EXTD=
EXTT0=
EXTT1=
EXTT2=
EXTT3=
EXTT4=
EXTT5=
EXTT6=
EXTT7=
EXTT8=
EXTT9=
EXTT10=
PLAYORDER=
